<?xml version="1.0" encoding="utf-8"?>
<!-- Generator: Adobe Illustrator 17.1.0, SVG Export Plug-In . SVG Version: 6.00 Build 0)  -->
<!DOCTYPE svg PUBLIC "-//W3C//DTD SVG 1.1//EN" "http://www.w3.org/Graphics/SVG/1.1/DTD/svg11.dtd">
<svg version="1.1" id="support-avatar" xmlns="http://www.w3.org/2000/svg" xmlns:xlink="http://www.w3.org/1999/xlink" x="0px"
	 y="0px" viewBox="0 0 1024 1024" enable-background="new 0 0 1024 1024" xml:space="preserve">
<rect id="support-avatar-label" fill="none" width="100%"/>     
<g id="support-avatar-support-avatar">
	<g>
		<path fill="#D0E8F9" d="M820.4717,631.5996c0-65.8994-58.4286-83.7285-58.4286-83.7285l-2.3428-51.7427
			C747.9287,357.2139,641.6572,256,511.9785,256c-129.6572,0-234.1284,98.9141-244.1924,240.1284
			c-2.3721,33.0005-4.7075,63.5005-4.7075,63.5005s-53.9785,15.2998-59.314,74.3281
			c-2.3432,25.9005,11.7925,82.3712,77.6856,82.3712h204.7856H747.5C747.5,716.3281,820.4717,709.2852,820.4717,631.5996z"/>
		<path fill="#0096E6" d="M747.5,729.1289H281.4502c-27.793,0-51.0215-9.3437-67.1787-27.0293
			c-19.8286-21.6992-24.9214-50.8857-23.2569-69.2998c4.7422-52.4424,42.5069-74.7285,59.9209-82.2715
			c0.8506-11.2285,2.4571-32.6855,4.086-55.3144c10.4072-146.0284,118.4717-252.0137,256.957-252.0137
			c136.336,0,248.3076,108.2715,260.4785,251.8496l1.9864,43.8789c24.1425,10.8565,58.8281,39.8281,58.8281,92.6709
			c0,70.6436-55.2998,94.6436-84.543,97.4717C748.3145,729.1143,747.9141,729.1289,747.5,729.1289L747.5,729.1289z
			 M511.9785,268.7998c-124.6714,0-222,95.9858-231.4287,228.2358c-2.3711,33.0357-4.707,63.564-4.707,63.564
			c-0.4141,5.3574-4.1143,9.8858-9.2715,11.3438c-1.8066,0.5283-45.6143,13.9707-50.0567,63.1709
			c-1.25,13.7998,3.4283,35.2431,16.6568,49.7285c11.3354,12.4005,27.5786,18.6855,48.2788,18.6855h465.3066
			c6.4864-0.8281,60.9151-9.6709,60.9151-71.9287c0-55.7715-48.8721-71.3281-49.3574-71.4853
			c-5.1856-1.586-8.8145-6.2569-9.0577-11.6573l-2.3427-51.75C735.7285,364.8574,636.9141,268.7998,511.9785,268.7998
			L511.9785,268.7998z"/>
	</g>
	<g>
		<path fill="#FFFFFF" d="M669.2432,711c-41.4286,34.9717-94,57-154.4932,57c-57.6572,0-106.0142-22.7861-148.5645-52.0566
			c-16.9638-11.6582-39.7929-42.4151-39.7929-42.4151V476.457h375.8222v199.7432C702.2148,676.2002,686.0283,696.8281,669.2432,711z
			"/>
		<path fill="#0096E6" d="M514.75,780.7998c-52.4429,0-101.957-17.2568-155.8213-54.3144c-18.1855-12.5-40.3501-42-42.8144-45.3282
			c-1.6358-2.2003-2.5215-4.8857-2.5215-7.6289V476.457c0-7.0713,5.7285-12.7998,12.7998-12.7998h375.8222
			c7.0713,0,12.7998,5.7285,12.7998,12.7998v199.7432c0,2.8711-0.958,5.6426-2.7285,7.8994
			c-0.7002,0.8858-17.2002,21.8291-34.7861,36.6856C630.9863,760.043,574.7002,780.7998,514.75,780.7998L514.75,780.7998z
			 M339.1929,669.2139c7.6069,9.8291,23.2285,28.6142,34.2426,36.1865c49.3931,33.9707,94.3003,49.7998,141.3145,49.7998
			c53.8359,0,104.4072-18.6719,146.2363-53.9863c11.6709-9.8428,23.2998-23.3565,28.4278-29.5567V489.2568H339.1929V669.2139
			L339.1929,669.2139z"/>
	</g>
	<path fill="#0096E6" d="M449.2783,558.8857c0,12.2286-9.8994,22.1573-22.1494,22.1573c-12.2217,0-22.1572-9.9287-22.1572-22.1573
		c0-12.2138,9.9355-22.1288,22.1572-22.1288C439.3789,536.7568,449.2783,546.6719,449.2783,558.8857z"/>
	<path fill="#0096E6" d="M630.7715,558.8857c0,12.2286-9.9287,22.1573-22.1426,22.1573c-12.2432,0-22.1572-9.9287-22.1572-22.1573
		c0-12.2138,9.914-22.1288,22.1572-22.1288C620.8428,536.7568,630.7715,546.6719,630.7715,558.8857z"/>
	<g>
		<path fill="#0096E6" d="M517.1074,674.8711c-24.393,0-46.1645-14.5996-55.4648-37.1992
			c-2.6924-6.543,0.4287-14.0146,6.9648-16.7149c6.543-2.6572,14.0215,0.4434,16.7071,6.9717
			c5.3359,12.9717,17.8144,21.3428,31.7929,21.3428c13.9639,0,26.4209-8.3711,31.7354-21.3281
			c2.6855-6.5577,10.2138-9.6719,16.7003-6.9865c6.5428,2.6856,9.6718,10.1719,6.9853,16.7003
			C563.2432,660.2715,541.4863,674.8711,517.1074,674.8711L517.1074,674.8711z"/>
	</g>
	<g>
		<g>
			<g>
				<path fill="#0096E6" d="M736.2432,513.7139c-6.4151,0-11.9571-4.814-12.7001-11.3496
					c-12.1857-106.6211-102.3428-187.0215-209.7072-187.0215c-107.3715,0-197.5361,80.4004-209.7216,187.0215
					c-0.793,7.0283-7.0997,12.1289-14.1641,11.2646c-7.0288-0.8003-12.0713-7.1435-11.2647-14.165
					c13.6573-119.564,114.7574-209.7207,235.1504-209.7207c120.3926,0,221.4786,90.1567,235.1358,209.7207
					c0.7998,7.0215-4.2432,13.3647-11.2569,14.165C737.2148,513.6855,736.7285,513.7139,736.2432,513.7139L736.2432,513.7139z"/>
			</g>
		</g>
		<g>
			<g>
				<path fill="#FFFFFF" d="M272.3213,486.1855c-22.3145,0-40.3999,27.0997-40.3999,60.586
					c0,33.457,18.0854,60.5713,40.3999,60.5713c6.6504,0,12.8213-2.6288,18.3574-6.8994V493.0859
					C285.1426,488.8145,278.9717,486.1855,272.3213,486.1855z"/>
				<path fill="#0096E6" d="M272.3213,620.1426c-29.8281,0-53.1997-32.2285-53.1997-73.3711
					c0-41.1504,23.3716-73.3858,53.1997-73.3858c9.1431,0,17.9502,3.2217,26.1787,9.5645
					c3.1357,2.4282,4.9785,6.1709,4.9785,10.1357v107.3575c0,3.9707-1.8428,7.7138-4.9785,10.1279
					C290.2715,616.9287,281.4644,620.1426,272.3213,620.1426L272.3213,620.1426z M272.3213,498.9854
					c-13.0566,0-27.5996,19.622-27.5996,47.7861c0,28.1572,14.543,47.7715,27.5996,47.7715c1.8003,0,3.6572-0.4141,5.5576-1.2285
					v-93.1006C275.9785,499.3999,274.1216,498.9854,272.3213,498.9854L272.3213,498.9854z"/>
			</g>
		</g>
		<g>
			<g>
				<path fill="#FFFFFF" d="M753.3711,486.1855c22.3144,0,40.415,27.0997,40.415,60.586c0,33.457-18.1006,60.5713-40.415,60.5713
					c-6.6279,0-12.8281-2.6288-18.3565-6.8994V493.0859C740.543,488.8145,746.7432,486.1855,753.3711,486.1855z"/>
				<path fill="#0096E6" d="M753.3711,620.1426c-9.1563,0-17.957-3.2139-26.1856-9.5713
					c-3.1289-2.4287-4.9707-6.1572-4.9707-10.1279V493.0859c0-3.9648,1.8418-7.7075,4.9707-10.1289
					c8.2286-6.3496,17.0293-9.5713,26.1856-9.5713c29.8437,0,53.2148,32.2354,53.2148,73.3858
					C806.5859,587.9141,783.2148,620.1426,753.3711,620.1426L753.3711,620.1426z M747.8145,593.3145
					c1.9003,0.8144,3.7568,1.2285,5.5566,1.2285c13.0576,0,27.6152-19.6143,27.6152-47.7715
					c0-28.1641-14.5576-47.7861-27.6152-47.7861c-1.7998,0-3.6563,0.4145-5.5566,1.2285V593.3145L747.8145,593.3145z"/>
			</g>
		</g>
		<g>
			<path fill="#0096E6" d="M566.0713,731.5137c-17.9717,0-32.585-14.6133-32.585-32.5703c0-17.9717,14.6133-32.6006,32.585-32.6006
				c17.957,0,32.5713,14.6289,32.5713,32.6006C598.6426,716.9004,584.0283,731.5137,566.0713,731.5137L566.0713,731.5137z
				 M566.0713,691.9434c-3.8565,0-6.9854,3.1425-6.9854,7c0,3.8418,3.1289,6.9707,6.9854,6.9707
				c3.8428,0,6.9717-3.1289,6.9717-6.9707C573.043,695.0859,569.9141,691.9434,566.0713,691.9434L566.0713,691.9434z"/>
		</g>
		<g>
			<path fill="#0096E6" d="M585.8281,711.7432c-6.6279,0-12.2285-5.1143-12.7422-11.8428
				c-0.5293-7.043,4.7569-13.1719,11.7998-13.7149c0.9424-0.0859,95.0713-8.2714,138.7862-91.6855
				c3.2851-6.2715,11-8.6426,17.2851-5.4004c6.2578,3.2861,8.6719,11.0293,5.4004,17.2861
				c-50.4717,96.2715-155.1426,105-159.5859,105.3282C586.457,711.7285,586.1426,711.7432,585.8281,711.7432L585.8281,711.7432z"/>
		</g>
	</g>
</g>
</svg>
